<?xml version="1.0" encoding="utf-8"?>
<!-- Generator: Adobe Illustrator 21.0.2, SVG Export Plug-In . SVG Version: 6.00 Build 0)  -->
<svg version="1.2" baseProfile="tiny" id="Layer_1" xmlns="http://www.w3.org/2000/svg" xmlns:xlink="http://www.w3.org/1999/xlink"
	 x="0px" y="0px" width="512px" height="512px" viewBox="0 0 512 512" xml:space="preserve">
<g id="Page-1">
	<g id="Desktop-HD" transform="translate(-644.000000, -806.000000)">
		<g id="download-from-cloud" transform="translate(644.000000, 806.000000)">
			<g id="Capa_1">
				<path id="Shape" d="M356.6,369.5c4-4.1,4-10.7,0-14.7c-4.1-4.1-10.7-4.1-14.7,0l-74.6,74.4V183.3c0-5.7-4.6-10.4-10.3-10.4
					c-5.7,0-10.5,4.7-10.5,10.4v245.9L172,354.8c-4.1-4.1-10.6-4.1-14.7,0c-4,4-4,10.6,0,14.7l92.3,92.2c4,4,10.6,4,14.7,0
					L356.6,369.5z M224.6,296.5c5.6,0,10.3,4.6,10.3,10.3s-4.7,10.4-10.3,10.4h-99.4c-28.7,0-54.8-11.6-73.6-30.6
					c-19-18.8-30.6-44.9-30.6-73.5s11.6-54.7,30.6-73.5c18.8-18.8,44.9-30.6,73.6-30.6c6.9,0,13.8,0.7,20.6,2.2
					c3.8,0.7,7.5,1.6,11,2.8c11-19,26.8-34.9,45.5-46.5c20.6-12.8,44.9-20.2,70.9-20.2c35.6,0,68.2,14,92.3,36.6
					c21.8,20.4,36.7,47.8,41.2,78.7c2.2-0.3,4.6-0.3,6.8-0.3c21.3,0,40.8,8.7,54.8,22.6c14.1,14,22.7,33.4,22.7,54.7
					c0,21.5-8.5,40.7-22.7,54.9c-14,14-33.4,22.6-54.8,22.6h-126c-5.7,0-10.3-4.7-10.3-10.4s4.6-10.3,10.3-10.3h126
					c15.6,0,29.9-6.3,40-16.6c10.3-10.3,16.6-24.4,16.6-40.2c0-15.6-6.3-29.9-16.6-40c-10.2-10.3-24.4-16.6-40-16.6
					c-2.4,0-4.7,0.1-6.8,0.4c-2.2,0.1-4.4,0.6-6.3,1c-0.7,0.1-1.5,0.3-2.2,0.4c-5.7,0.3-10.6-4.1-11-9.9
					c-1.8-29.9-15.2-56.8-35.8-76c-20.5-19.3-48-31-78.2-31c-22.1,0-42.7,6.3-60.1,17.1c-18.1,11-32.7,27.1-42.2,46.2l0,0
					c-2.5,4.9-8.2,7.1-13.4,5c-5-2.2-10.3-3.8-15.7-5c-5.3-1-10.7-1.6-16.6-1.6c-23.1,0-43.9,9.4-59,24.4c-15,15.2-24.4,36-24.4,59
					c0,23.1,9.4,43.8,24.4,59c15.2,15,35.9,24.4,59,24.4H224.6L224.6,296.5z"/>
			</g>
		</g>
	</g>
</g>
</svg>
