<?xml version="1.0" encoding="utf-8"?>
<!-- Generator: Adobe Illustrator 21.0.2, SVG Export Plug-In . SVG Version: 6.00 Build 0)  -->
<svg version="1.0" id="Layer_1" xmlns="http://www.w3.org/2000/svg" xmlns:xlink="http://www.w3.org/1999/xlink" x="0px" y="0px"
	 width="512px" height="512px" viewBox="0 0 512 512" enable-background="new 0 0 512 512" xml:space="preserve">
<g id="download" display="none">
	<g id="Desktop-HD" transform="translate(-644.000000, -806.000000)" display="inline">
		<g id="download-from-cloud" transform="translate(644.000000, 806.000000)">
			<g id="Capa_1">
				<path id="Shape" d="M356.6,369.5c4-4.1,4-10.7,0-14.7c-4.1-4.1-10.7-4.1-14.7,0l-74.6,74.4V183.3c0-5.7-4.6-10.4-10.3-10.4
					c-5.7,0-10.5,4.7-10.5,10.4v245.9L172,354.8c-4.1-4.1-10.6-4.1-14.7,0c-4,4-4,10.6,0,14.7l92.3,92.2c4,4,10.6,4,14.7,0
					L356.6,369.5z M224.6,296.5c5.6,0,10.3,4.6,10.3,10.3s-4.7,10.4-10.3,10.4h-99.4c-28.7,0-54.8-11.6-73.6-30.6
					c-19-18.8-30.6-44.9-30.6-73.5s11.6-54.7,30.6-73.5c18.8-18.8,44.9-30.6,73.6-30.6c6.9,0,13.8,0.7,20.6,2.2
					c3.8,0.7,7.5,1.6,11,2.8c11-19,26.8-34.9,45.5-46.5c20.6-12.8,44.9-20.2,70.9-20.2c35.6,0,68.2,14,92.3,36.6
					c21.8,20.4,36.7,47.8,41.2,78.7c2.2-0.3,4.6-0.3,6.8-0.3c21.3,0,40.8,8.7,54.8,22.6c14.1,14,22.7,33.4,22.7,54.7
					c0,21.5-8.5,40.7-22.7,54.9c-14,14-33.4,22.6-54.8,22.6h-126c-5.7,0-10.3-4.7-10.3-10.4s4.6-10.3,10.3-10.3h126
					c15.6,0,29.9-6.3,40-16.6c10.3-10.3,16.6-24.4,16.6-40.2c0-15.6-6.3-29.9-16.6-40c-10.2-10.3-24.4-16.6-40-16.6
					c-2.4,0-4.7,0.1-6.8,0.4c-2.2,0.1-4.4,0.6-6.3,1c-0.7,0.1-1.5,0.3-2.2,0.4c-5.7,0.3-10.6-4.1-11-9.9
					c-1.8-29.9-15.2-56.8-35.8-76c-20.5-19.3-48-31-78.2-31c-22.1,0-42.7,6.3-60.1,17.1c-18.1,11-32.7,27.1-42.2,46.2l0,0
					c-2.5,4.9-8.2,7.1-13.4,5c-5-2.2-10.3-3.8-15.7-5c-5.3-1-10.7-1.6-16.6-1.6c-23.1,0-43.9,9.4-59,24.4c-15,15.2-24.4,36-24.4,59
					c0,23.1,9.4,43.8,24.4,59c15.2,15,35.9,24.4,59,24.4H224.6L224.6,296.5z"/>
			</g>
		</g>
	</g>
</g>
<g id="telephone" display="none">
	<g id="Desktop-HD_1_" transform="translate(-876.000000, -43.000000)" display="inline">
		<g id="phone-call" transform="translate(876.000000, 43.000000)">
			<g id="Capa_1_1_">
				<g id="Group">
					<path id="Shape_3_" d="M354.3,291.7c-7.1-7.4-15.8-11.4-24.9-11.4c-9.1,0-17.8,3.9-25.2,11.3L281,314.8c-1.9-1-3.8-2-5.7-2.9
						c-2.7-1.3-5.2-2.6-7.3-3.9c-21.8-13.8-41.6-31.9-60.6-55.2c-9.2-11.6-15.4-21.4-19.9-31.4c6-5.5,11.6-11.3,17.1-16.8
						c2.1-2.1,4.1-4.2,6.2-6.3c15.5-15.5,15.5-35.5,0-51l-20.1-20.1c-2.3-2.3-4.6-4.6-6.8-7c-4.4-4.6-9.1-9.3-13.8-13.7
						c-7.1-7.1-15.7-10.8-24.7-10.8c-9,0-17.7,3.8-25,10.8c-0.1,0.1-0.1,0.1-0.1,0.1l-25,25.3c-9.4,9.4-14.8,20.9-16,34.2
						c-1.8,21.5,4.6,41.5,9.4,54.6c11.9,32.2,29.8,62,56.3,94c32.3,38.5,71.1,68.9,115.4,90.4c16.9,8,39.6,17.5,64.8,19.1
						c1.5,0.1,3.2,0.1,4.6,0.1c17,0,31.3-6.1,42.5-18.3c0.1-0.1,0.2-0.2,0.3-0.4c3.8-4.6,8.2-8.8,12.9-13.3c3.2-3,6.4-6.2,9.6-9.5
						c7.3-7.6,11.1-16.4,11.1-25.5c0-9.1-3.9-17.9-11.3-25.3L354.3,291.7z M380.7,369.2C380.6,369.2,380.6,369.3,380.7,369.2
						c-2.9,3.1-5.8,5.9-9,9c-4.8,4.6-9.6,9.4-14.2,14.7c-7.4,8-16.2,11.7-27.7,11.7c-1.1,0-2.3,0-3.4-0.1
						c-21.9-1.4-42.2-9.9-57.4-17.2c-41.7-20.2-78.3-48.8-108.7-85.1c-25.1-30.3-41.9-58.3-53-88.3c-6.8-18.3-9.4-32.6-8.2-46.1
						c0.7-8.6,4.1-15.8,10.2-21.9l25.1-25.1c3.6-3.4,7.4-5.2,11.2-5.2c4.6,0,8.4,2.8,10.8,5.2c0.1,0.1,0.1,0.1,0.2,0.2
						c4.5,4.2,8.8,8.5,13.3,13.2c2.3,2.4,4.6,4.7,7,7.1l20.1,20.1c7.8,7.8,7.8,15,0,22.8c-2.1,2.1-4.2,4.3-6.3,6.3
						c-6.2,6.3-12.1,12.2-18.5,18c-0.1,0.1-0.3,0.2-0.4,0.4c-6.3,6.3-5.2,12.5-3.8,16.7c0.1,0.2,0.1,0.4,0.2,0.7
						c5.2,12.7,12.6,24.6,23.8,38.8l0.1,0.1c20.3,25,41.8,44.6,65.4,59.5c3,1.9,6.1,3.5,9.1,4.9c2.7,1.3,5.2,2.6,7.3,3.9
						c0.3,0.1,0.6,0.4,0.9,0.5c2.5,1.3,4.9,1.8,7.3,1.8c6.1,0,9.9-3.8,11.2-5.1l25.2-25.2c2.5-2.5,6.5-5.5,11.1-5.5
						c4.6,0,8.3,2.9,10.6,5.4c0.1,0.1,0.1,0.1,0.1,0.1l40.6,40.6C388.2,353.7,388.2,361.4,380.7,369.2z"/>
					<path id="Shape_1_" d="M267.1,158.5c19.3,3.2,36.8,12.4,50.8,26.4c14,14,23.1,31.5,26.4,50.8c0.8,4.9,5,8.2,9.8,8.2
						c0.6,0,1.1-0.1,1.7-0.1c5.5-0.9,9.1-6,8.2-11.5c-4-23.3-15-44.6-31.9-61.5c-16.9-16.9-38.2-27.9-61.5-31.9
						c-5.5-0.9-10.5,2.7-11.5,8.1C258.2,152.4,261.7,157.6,267.1,158.5z"/>
					<path id="Shape_2_" d="M427.1,229.4c-6.6-38.4-24.7-73.4-52.5-101.3s-62.8-46-101.3-52.5c-5.4-1-10.5,2.7-11.4,8.1
						c-0.9,5.5,2.7,10.5,8.2,11.5c34.3,5.8,65.6,22.1,90.5,46.9c24.9,24.9,41.1,56.2,46.9,90.5c0.8,4.9,5,8.2,9.8,8.2
						c0.6,0,1.1-0.1,1.7-0.1C424.4,239.9,428.1,234.8,427.1,229.4z"/>
				</g>
			</g>
		</g>
	</g>
</g>
<g id="envelope">
	<path d="M335.7,217.3l59.4-85.1l43.4,117.4L335.7,217.3z M215.9,343l55.7-89.4l26.2,6.8c0.8,0.2,1.6,0.3,2.4,0.3
		c3.2,0,6.2-1.5,8-4.2l15.5-22.2l100.4,31.6L215.9,343z M194.7,340l-43.4-117.4l100.4,25.9L194.7,340z M371.8,131.3l-75.6,108.3
		l-127.8-32.9L371.8,131.3z M460.4,252.4l-50-135.4c-1.8-4.9-5.4-8.8-10.2-11c-4.8-2.2-10.1-2.4-15-0.6l-243.8,90.3
		c-4.9,1.8-8.8,5.4-11,10.2c-2.2,4.8-2.4,10.1-0.6,15l50,135.4c1.8,4.9,5.4,8.8,10.2,11c2.6,1.2,5.4,1.8,8.2,1.8
		c2.3,0,4.6-0.4,6.8-1.2l243.8-90.3h0C459,273.8,464.2,262.5,460.4,252.4z"/>
	<path d="M136.7,356.8c-1.9-5.1-7.5-7.7-12.6-5.8l-36.9,13.7c-5.1,1.9-7.7,7.5-5.8,12.6c1.5,4,5.2,6.4,9.2,6.4
		c1.1,0,2.3-0.2,3.4-0.6l36.9-13.7C136,367.5,138.5,361.9,136.7,356.8z"/>
	<path d="M87.4,267.2c-1.9-5.1-7.5-7.7-12.6-5.8L52,269.9c-5.1,1.9-7.7,7.5-5.8,12.6c1.5,4,5.2,6.4,9.2,6.4c1.1,0,2.3-0.2,3.4-0.6
		l22.8-8.4C86.7,278,89.3,272.3,87.4,267.2z"/>
	<path d="M59.2,340.8c-1.9-5.1-7.5-7.7-12.6-5.8l-16.9,6.3c-5.1,1.9-7.7,7.5-5.8,12.6c1.5,4,5.2,6.4,9.2,6.4c1.1,0,2.3-0.2,3.4-0.6
		l16.9-6.3C58.5,351.5,61.1,345.9,59.2,340.8z"/>
</g>
<g id="code" display="none">
	<g display="inline">
		<path d="M295.2,128l-10.8-2.9c-1.4-0.5-2.7-0.3-4.1,0.4c-1.3,0.8-2.2,1.9-2.7,3.4l-64.7,224c-0.5,1.5-0.3,2.9,0.4,4.3
			c0.8,1.3,1.9,2.2,3.4,2.7l10.8,3c1.4,0.5,2.7,0.3,4.1-0.4c1.3-0.8,2.2-1.9,2.7-3.4L299,135c0.5-1.5,0.3-2.9-0.4-4.3
			C297.8,129.4,296.7,128.5,295.2,128z"/>
		<path d="M198.2,171.8c0-1.5-0.6-2.8-1.7-4l-8.7-8.7c-1.2-1.2-2.5-1.7-4-1.7c-1.5,0-2.8,0.6-4,1.7L99,239.9c-1.2,1.2-1.7,2.5-1.7,4
			c0,1.5,0.6,2.8,1.7,4l80.8,80.8c1.2,1.2,2.5,1.7,4,1.7c1.5,0,2.8-0.6,4-1.7l8.7-8.7c1.2-1.2,1.7-2.5,1.7-4c0-1.5-0.6-2.8-1.7-4
			l-68.2-68.2l68.2-68.2C197.7,174.6,198.2,173.3,198.2,171.8z"/>
		<path d="M413,239.9l-80.8-80.8c-1.2-1.2-2.5-1.7-4-1.7c-1.5,0-2.8,0.6-4,1.7l-8.7,8.7c-1.2,1.2-1.7,2.5-1.7,4s0.6,2.8,1.7,4
			l68.2,68.2l-68.2,68.2c-1.2,1.2-1.7,2.5-1.7,4c0,1.5,0.6,2.8,1.7,4l8.7,8.7c1.2,1.2,2.5,1.7,4,1.7c1.5,0,2.8-0.6,4-1.7l80.8-80.8
			c1.2-1.2,1.7-2.5,1.7-4C414.7,242.4,414.2,241.1,413,239.9z"/>
	</g>
</g>
<g id="link" display="none">
	<path display="inline" stroke="#000000" stroke-width="6" stroke-miterlimit="10" d="M425.3,311.3c2.8-12.1,4.3-24.4,4.3-36.8
		c0-57.3-29.2-109.5-78-139.6c-3-1.8-6.8-0.9-8.7,2.1c-1.8,3-0.9,6.8,2.1,8.7C390,173.5,417,221.7,417,274.6
		c0,10.9-1.3,21.7-3.6,32.4c-2.9-0.6-5.9-0.9-9-0.9c-24.3,0-44.1,19.8-44.1,44.1s19.8,44.1,44.1,44.1c24.3,0,44.1-19.8,44.1-44.1
		C448.5,333.4,439.1,318.8,425.3,311.3z M404.4,381.7c-17.4,0-31.5-14.1-31.5-31.5s14.1-31.5,31.5-31.5c17.4,0,31.5,14.1,31.5,31.5
		S421.7,381.7,404.4,381.7z"/>
	<path display="inline" stroke="#000000" stroke-width="6" stroke-miterlimit="10" d="M323.6,414.3c-18.4,7.6-37.8,11.5-57.8,11.5
		c-40.2,0-78.9-16.2-107.2-44.7c7.8-8,12.7-18.9,12.7-30.9c0-24.3-19.8-44.1-44.1-44.1s-44.1,19.8-44.1,44.1s19.8,44.1,44.1,44.1
		c7.7,0,15-2,21.3-5.5c30.7,31.6,73.2,49.6,117.3,49.6c21.6,0,42.7-4.2,62.6-12.4c3.2-1.3,4.7-5,3.4-8.2
		C330.5,414.5,326.8,413,323.6,414.3z M95.7,350.2c0-17.4,14.1-31.5,31.5-31.5s31.5,14.1,31.5,31.5s-14.1,31.5-31.5,31.5
		S95.7,367.5,95.7,350.2z"/>
	<path display="inline" stroke="#000000" stroke-width="6" stroke-miterlimit="10" d="M108.3,269.6c0.2,0,0.3,0,0.4,0
		c3.3,0,6-2.5,6.3-5.9c4.5-63.6,47.8-116.7,108.5-134.3c5.4,18.3,22.3,31.7,42.3,31.7c24.3,0,44.1-19.8,44.1-44.1S290.1,73,265.8,73
		c-24.3,0-44,19.7-44.1,43.9c-66.7,18.6-114.3,76.5-119.2,146C102.2,266.3,104.8,269.4,108.3,269.6z M265.8,85.6
		c17.4,0,31.5,14.1,31.5,31.5s-14.1,31.5-31.5,31.5s-31.5-14.1-31.5-31.5S248.4,85.6,265.8,85.6z"/>
</g>
<g>
</g>
<g>
</g>
<g>
</g>
<g>
</g>
<g>
</g>
<g>
</g>
<g>
</g>
<g>
</g>
<g>
</g>
<g>
</g>
<g>
</g>
<g>
</g>
<g>
</g>
<g>
</g>
<g>
</g>
</svg>
