<?xml version="1.0" encoding="utf-8"?>
<!-- Generator: Adobe Illustrator 21.0.2, SVG Export Plug-In . SVG Version: 6.00 Build 0)  -->
<svg version="1.0" id="Layer_1" xmlns="http://www.w3.org/2000/svg" xmlns:xlink="http://www.w3.org/1999/xlink" x="0px" y="0px"
	 width="512px" height="512px" viewBox="0 0 512 512" enable-background="new 0 0 512 512" xml:space="preserve">
<g id="download" display="none">
	<g id="Desktop-HD" transform="translate(-644.000000, -806.000000)" display="inline">
		<g id="download-from-cloud" transform="translate(644.000000, 806.000000)">
			<g id="Capa_1">
				<path id="Shape" d="M356.6,369.5c4-4.1,4-10.7,0-14.7c-4.1-4.1-10.7-4.1-14.7,0l-74.6,74.4V183.3c0-5.7-4.6-10.4-10.3-10.4
					c-5.7,0-10.5,4.7-10.5,10.4v245.9L172,354.8c-4.1-4.1-10.6-4.1-14.7,0c-4,4-4,10.6,0,14.7l92.3,92.2c4,4,10.6,4,14.7,0
					L356.6,369.5z M224.6,296.5c5.6,0,10.3,4.6,10.3,10.3s-4.7,10.4-10.3,10.4h-99.4c-28.7,0-54.8-11.6-73.6-30.6
					c-19-18.8-30.6-44.9-30.6-73.5s11.6-54.7,30.6-73.5c18.8-18.8,44.9-30.6,73.6-30.6c6.9,0,13.8,0.7,20.6,2.2
					c3.8,0.7,7.5,1.6,11,2.8c11-19,26.8-34.9,45.5-46.5c20.6-12.8,44.9-20.2,70.9-20.2c35.6,0,68.2,14,92.3,36.6
					c21.8,20.4,36.7,47.8,41.2,78.7c2.2-0.3,4.6-0.3,6.8-0.3c21.3,0,40.8,8.7,54.8,22.6c14.1,14,22.7,33.4,22.7,54.7
					c0,21.5-8.5,40.7-22.7,54.9c-14,14-33.4,22.6-54.8,22.6h-126c-5.7,0-10.3-4.7-10.3-10.4s4.6-10.3,10.3-10.3h126
					c15.6,0,29.9-6.3,40-16.6c10.3-10.3,16.6-24.4,16.6-40.2c0-15.6-6.3-29.9-16.6-40c-10.2-10.3-24.4-16.6-40-16.6
					c-2.4,0-4.7,0.1-6.8,0.4c-2.2,0.1-4.4,0.6-6.3,1c-0.7,0.1-1.5,0.3-2.2,0.4c-5.7,0.3-10.6-4.1-11-9.9
					c-1.8-29.9-15.2-56.8-35.8-76c-20.5-19.3-48-31-78.2-31c-22.1,0-42.7,6.3-60.1,17.1c-18.1,11-32.7,27.1-42.2,46.2l0,0
					c-2.5,4.9-8.2,7.1-13.4,5c-5-2.2-10.3-3.8-15.7-5c-5.3-1-10.7-1.6-16.6-1.6c-23.1,0-43.9,9.4-59,24.4c-15,15.2-24.4,36-24.4,59
					c0,23.1,9.4,43.8,24.4,59c15.2,15,35.9,24.4,59,24.4H224.6L224.6,296.5z"/>
			</g>
		</g>
	</g>
</g>
<g id="telephone" display="none">
	<g id="Desktop-HD_1_" transform="translate(-876.000000, -43.000000)" display="inline">
		<g id="phone-call" transform="translate(876.000000, 43.000000)">
			<g id="Capa_1_1_">
				<g id="Group">
					<path id="Shape_3_" d="M354.3,291.7c-7.1-7.4-15.8-11.4-24.9-11.4c-9.1,0-17.8,3.9-25.2,11.3L281,314.8c-1.9-1-3.8-2-5.7-2.9
						c-2.7-1.3-5.2-2.6-7.3-3.9c-21.8-13.8-41.6-31.9-60.6-55.2c-9.2-11.6-15.4-21.4-19.9-31.4c6-5.5,11.6-11.3,17.1-16.8
						c2.1-2.1,4.1-4.2,6.2-6.3c15.5-15.5,15.5-35.5,0-51l-20.1-20.1c-2.3-2.3-4.6-4.6-6.8-7c-4.4-4.6-9.1-9.3-13.8-13.7
						c-7.1-7.1-15.7-10.8-24.7-10.8c-9,0-17.7,3.8-25,10.8c-0.1,0.1-0.1,0.1-0.1,0.1l-25,25.3c-9.4,9.4-14.8,20.9-16,34.2
						c-1.8,21.5,4.6,41.5,9.4,54.6c11.9,32.2,29.8,62,56.3,94c32.3,38.5,71.1,68.9,115.4,90.4c16.9,8,39.6,17.5,64.8,19.1
						c1.5,0.1,3.2,0.1,4.6,0.1c17,0,31.3-6.1,42.5-18.3c0.1-0.1,0.2-0.2,0.3-0.4c3.8-4.6,8.2-8.8,12.9-13.3c3.2-3,6.4-6.2,9.6-9.5
						c7.3-7.6,11.1-16.4,11.1-25.5c0-9.1-3.9-17.9-11.3-25.3L354.3,291.7z M380.7,369.2C380.6,369.2,380.6,369.3,380.7,369.2
						c-2.9,3.1-5.8,5.9-9,9c-4.8,4.6-9.6,9.4-14.2,14.7c-7.4,8-16.2,11.7-27.7,11.7c-1.1,0-2.3,0-3.4-0.1
						c-21.9-1.4-42.2-9.9-57.4-17.2c-41.7-20.2-78.3-48.8-108.7-85.1c-25.1-30.3-41.9-58.3-53-88.3c-6.8-18.3-9.4-32.6-8.2-46.1
						c0.7-8.6,4.1-15.8,10.2-21.9l25.1-25.1c3.6-3.4,7.4-5.2,11.2-5.2c4.6,0,8.4,2.8,10.8,5.2c0.1,0.1,0.1,0.1,0.2,0.2
						c4.5,4.2,8.8,8.5,13.3,13.2c2.3,2.4,4.6,4.7,7,7.1l20.1,20.1c7.8,7.8,7.8,15,0,22.8c-2.1,2.1-4.2,4.3-6.3,6.3
						c-6.2,6.3-12.1,12.2-18.5,18c-0.1,0.1-0.3,0.2-0.4,0.4c-6.3,6.3-5.2,12.5-3.8,16.7c0.1,0.2,0.1,0.4,0.2,0.7
						c5.2,12.7,12.6,24.6,23.8,38.8l0.1,0.1c20.3,25,41.8,44.6,65.4,59.5c3,1.9,6.1,3.5,9.1,4.9c2.7,1.3,5.2,2.6,7.3,3.9
						c0.3,0.1,0.6,0.4,0.9,0.5c2.5,1.3,4.9,1.8,7.3,1.8c6.1,0,9.9-3.8,11.2-5.1l25.2-25.2c2.5-2.5,6.5-5.5,11.1-5.5
						c4.6,0,8.3,2.9,10.6,5.4c0.1,0.1,0.1,0.1,0.1,0.1l40.6,40.6C388.2,353.7,388.2,361.4,380.7,369.2z"/>
					<path id="Shape_1_" d="M267.1,158.5c19.3,3.2,36.8,12.4,50.8,26.4c14,14,23.1,31.5,26.4,50.8c0.8,4.9,5,8.2,9.8,8.2
						c0.6,0,1.1-0.1,1.7-0.1c5.5-0.9,9.1-6,8.2-11.5c-4-23.3-15-44.6-31.9-61.5c-16.9-16.9-38.2-27.9-61.5-31.9
						c-5.5-0.9-10.5,2.7-11.5,8.1C258.2,152.4,261.7,157.6,267.1,158.5z"/>
					<path id="Shape_2_" d="M427.1,229.4c-6.6-38.4-24.7-73.4-52.5-101.3s-62.8-46-101.3-52.5c-5.4-1-10.5,2.7-11.4,8.1
						c-0.9,5.5,2.7,10.5,8.2,11.5c34.3,5.8,65.6,22.1,90.5,46.9c24.9,24.9,41.1,56.2,46.9,90.5c0.8,4.9,5,8.2,9.8,8.2
						c0.6,0,1.1-0.1,1.7-0.1C424.4,239.9,428.1,234.8,427.1,229.4z"/>
				</g>
			</g>
		</g>
	</g>
</g>
<g id="envelope" display="none">
	<path display="inline" d="M335.7,217.3l59.4-85.1l43.4,117.4L335.7,217.3z M215.9,343l55.7-89.4l26.2,6.8c0.8,0.2,1.6,0.3,2.4,0.3
		c3.2,0,6.2-1.5,8-4.2l15.5-22.2l100.4,31.6L215.9,343z M194.7,340l-43.4-117.4l100.4,25.9L194.7,340z M371.8,131.3l-75.6,108.3
		l-127.8-32.9L371.8,131.3z M460.4,252.4l-50-135.4c-1.8-4.9-5.4-8.8-10.2-11c-4.8-2.2-10.1-2.4-15-0.6l-243.8,90.3
		c-4.9,1.8-8.8,5.4-11,10.2c-2.2,4.8-2.4,10.1-0.6,15l50,135.4c1.8,4.9,5.4,8.8,10.2,11c2.6,1.2,5.4,1.8,8.2,1.8
		c2.3,0,4.6-0.4,6.8-1.2l243.8-90.3h0C459,273.8,464.2,262.5,460.4,252.4z"/>
	<path display="inline" d="M136.7,356.8c-1.9-5.1-7.5-7.7-12.6-5.8l-36.9,13.7c-5.1,1.9-7.7,7.5-5.8,12.6c1.5,4,5.2,6.4,9.2,6.4
		c1.1,0,2.3-0.2,3.4-0.6l36.9-13.7C136,367.5,138.5,361.9,136.7,356.8z"/>
	<path display="inline" d="M87.4,267.2c-1.9-5.1-7.5-7.7-12.6-5.8L52,269.9c-5.1,1.9-7.7,7.5-5.8,12.6c1.5,4,5.2,6.4,9.2,6.4
		c1.1,0,2.3-0.2,3.4-0.6l22.8-8.4C86.7,278,89.3,272.3,87.4,267.2z"/>
	<path display="inline" d="M59.2,340.8c-1.9-5.1-7.5-7.7-12.6-5.8l-16.9,6.3c-5.1,1.9-7.7,7.5-5.8,12.6c1.5,4,5.2,6.4,9.2,6.4
		c1.1,0,2.3-0.2,3.4-0.6l16.9-6.3C58.5,351.5,61.1,345.9,59.2,340.8z"/>
</g>
<g id="code" display="none">
	<g display="inline">
		<path d="M299.2,147.7l-11.8-3.2c-1.5-0.5-3-0.3-4.5,0.5c-1.5,0.8-2.5,2.1-3,3.7l-71.2,246.5c-0.5,1.7-0.3,3.2,0.5,4.7
			c0.8,1.5,2.1,2.5,3.7,3l11.8,3.2c1.5,0.5,3,0.4,4.5-0.5c1.5-0.8,2.5-2.1,3-3.7l71.2-246.5c0.5-1.7,0.3-3.2-0.5-4.7
			C302,149.2,300.8,148.2,299.2,147.7z"/>
		<path d="M192.4,195.8c0-1.7-0.6-3.1-1.9-4.4l-9.5-9.5c-1.3-1.3-2.7-1.9-4.4-1.9s-3.1,0.6-4.4,1.9l-89,89c-1.3,1.3-1.9,2.7-1.9,4.4
			c0,1.7,0.6,3.1,1.9,4.4l89,89c1.3,1.3,2.7,1.9,4.4,1.9s3.1-0.6,4.4-1.9l9.5-9.5c1.3-1.3,1.9-2.7,1.9-4.4c0-1.7-0.6-3.1-1.9-4.4
			l-75-75l75-75C191.8,199,192.4,197.5,192.4,195.8z"/>
		<path d="M428.8,270.9l-89-89c-1.3-1.3-2.7-1.9-4.4-1.9c-1.7,0-3.1,0.6-4.4,1.9l-9.5,9.5c-1.3,1.3-1.9,2.7-1.9,4.4
			c0,1.7,0.6,3.1,1.9,4.4l75,75l-75,75c-1.3,1.3-1.9,2.7-1.9,4.4c0,1.7,0.6,3.1,1.9,4.4l9.5,9.5c1.3,1.3,2.7,1.9,4.4,1.9
			c1.7,0,3.1-0.6,4.4-1.9l89-89c1.3-1.3,1.9-2.7,1.9-4.4C430.7,273.6,430.1,272.1,428.8,270.9z"/>
	</g>
</g>
<g id="link__x28_met_outlines_x29_" display="none">
	<path display="inline" stroke="#000000" stroke-width="10" stroke-miterlimit="10" d="M425.3,311.3c2.8-12.1,4.3-24.4,4.3-36.8
		c0-57.3-29.2-109.5-78-139.6c-3-1.8-6.8-0.9-8.7,2.1c-1.8,3-0.9,6.8,2.1,8.7C390,173.5,417,221.7,417,274.6
		c0,10.9-1.3,21.7-3.6,32.4c-2.9-0.6-5.9-0.9-9-0.9c-24.3,0-44.1,19.8-44.1,44.1s19.8,44.1,44.1,44.1c24.3,0,44.1-19.8,44.1-44.1
		C448.5,333.4,439.1,318.8,425.3,311.3z M404.4,381.7c-17.4,0-31.5-14.1-31.5-31.5s14.1-31.5,31.5-31.5c17.4,0,31.5,14.1,31.5,31.5
		S421.7,381.7,404.4,381.7z"/>
	<path display="inline" stroke="#000000" stroke-width="10" stroke-miterlimit="10" d="M323.6,414.3c-18.4,7.6-37.8,11.5-57.8,11.5
		c-40.2,0-78.9-16.2-107.2-44.7c7.8-8,12.7-18.9,12.7-30.9c0-24.3-19.8-44.1-44.1-44.1s-44.1,19.8-44.1,44.1s19.8,44.1,44.1,44.1
		c7.7,0,15-2,21.3-5.5c30.7,31.6,73.2,49.6,117.3,49.6c21.6,0,42.7-4.2,62.6-12.4c3.2-1.3,4.7-5,3.4-8.2
		C330.5,414.5,326.8,413,323.6,414.3z M95.7,350.2c0-17.4,14.1-31.5,31.5-31.5s31.5,14.1,31.5,31.5s-14.1,31.5-31.5,31.5
		S95.7,367.5,95.7,350.2z"/>
	<path display="inline" stroke="#000000" stroke-width="10" stroke-miterlimit="10" d="M108.3,269.6c0.2,0,0.3,0,0.4,0
		c3.3,0,6-2.5,6.3-5.9c4.5-63.6,47.8-116.7,108.5-134.3c5.4,18.3,22.3,31.7,42.3,31.7c24.3,0,44.1-19.8,44.1-44.1S290.1,73,265.8,73
		c-24.3,0-44,19.7-44.1,43.9c-66.7,18.6-114.3,76.5-119.2,146C102.2,266.3,104.8,269.4,108.3,269.6z M265.8,85.6
		c17.4,0,31.5,14.1,31.5,31.5s-14.1,31.5-31.5,31.5s-31.5-14.1-31.5-31.5S248.4,85.6,265.8,85.6z"/>
</g>
<g id="link" display="none">
	<path display="inline" d="M430.9,308.9c2.4-11.5,3.6-23.1,3.6-34.3c0-59.1-30.1-112.8-80.4-143.8c-5.3-3.3-12.3-1.6-15.5,3.7
		c-3.3,5.3-1.6,12.3,3.7,15.5c43.6,26.9,69.7,73.4,69.7,124.6c0,8.8-0.9,17.8-2.6,26.8c-1.7-0.2-3.4-0.3-5-0.3
		c-27.1,0-49.1,22-49.1,49.1s22,49.1,49.1,49.1s49.1-22,49.1-49.1C453.5,333.4,444.9,317.9,430.9,308.9z M430.9,350.2
		c0,14.6-11.9,26.5-26.5,26.5s-26.5-11.9-26.5-26.5s11.9-26.5,26.5-26.5S430.9,335.5,430.9,350.2z"/>
	<path display="inline" d="M321.6,409.7c-17.8,7.3-36.6,11.1-55.9,11.1c-37,0-73.3-14.5-100.3-39.9c7-8.7,10.8-19.4,10.8-30.7
		c0-27.1-22-49.1-49.1-49.1s-49.1,22-49.1,49.1s22,49.1,49.1,49.1c7,0,13.9-1.5,20.3-4.4c31.4,30.9,74.3,48.5,118.3,48.5
		c22.3,0,44-4.3,64.5-12.8c5.8-2.4,8.5-9,6.1-14.8C334,410,327.4,407.3,321.6,409.7z M153.7,350.2c0,14.6-11.9,26.5-26.5,26.5
		s-26.5-11.9-26.5-26.5s11.9-26.5,26.5-26.5S153.7,335.5,153.7,350.2z"/>
	<path display="inline" d="M107.9,274.6c0.3,0,0.6,0,0.8,0c5.9,0,10.8-4.6,11.3-10.5c2.1-30.1,13.2-58.3,32.1-81.6
		c17.8-22,41.3-38.1,68.3-46.9c7.5,18.2,25.5,30.5,45.4,30.5c27.1,0,49.1-22,49.1-49.1S292.8,68,265.8,68
		c-25.7,0-46.9,19.9-48.9,45.1c-32.3,9.7-60.5,28.5-81.8,54.5c-22.1,27-35.1,59.8-37.6,94.9c-0.2,3,0.8,5.9,2.7,8.2
		C102.2,273,104.9,274.4,107.9,274.6z M239.3,117.1c0-14.6,11.9-26.5,26.5-26.5c14.6,0,26.5,11.9,26.5,26.5s-11.9,26.5-26.5,26.5
		C251.2,143.6,239.3,131.7,239.3,117.1z"/>
	<path display="inline" d="M204.1,234h26.3v84.6h-26.3V234z M217.3,191.9c8.4,0,15.2,6.8,15.2,15.2c0,8.4-6.8,15.3-15.2,15.3
		c-8.4,0-15.3-6.8-15.3-15.3C202,198.8,208.8,191.9,217.3,191.9"/>
	<path display="inline" d="M246.9,234h25.2v11.6h0.3c3.5-6.7,12.1-13.7,24.9-13.7c26.6,0,31.6,17.5,31.6,40.3v46.4h-26.3v-41.2
		c0-9.8-0.2-22.4-13.7-22.4c-13.7,0-15.8,10.7-15.8,21.7v41.9h-26.3V234z"/>
</g>
<g id="link_online" display="none">
	<path display="inline" d="M141.9,331.2c13.5-13.7,29.4-24.4,47.2-31.9c34.1-14.4,73.2-15.2,107.9-2.2c-3.1,10.7-2.4,22.1,2,32.5
		c10.5,24.9,39.4,36.7,64.3,26.1c24.9-10.5,36.7-39.4,26.1-64.3c-10.5-24.9-39.4-36.7-64.3-26.1c-6.4,2.7-12.3,6.8-17,12
		c-41-16.2-87.3-15.8-127.8,1.3c-20.5,8.7-38.9,21.1-54.4,36.9c-4.4,4.4-4.3,11.6,0.1,16C130.3,335.7,137.5,335.6,141.9,331.2z
		 M319.8,320.7c-5.7-13.5,0.6-29,14.1-34.7c13.5-5.7,29,0.6,34.7,14.1c5.7,13.5-0.6,29-14.1,34.7C341,340.5,325.5,334.1,319.8,320.7
		z"/>
	<path display="inline" d="M197.1,157.6h26.3v84.6h-26.3V157.6z M210.3,115.5c8.4,0,15.2,6.8,15.2,15.2c0,8.4-6.8,15.3-15.2,15.3
		c-8.4,0-15.3-6.8-15.3-15.3C195,122.3,201.8,115.5,210.3,115.5"/>
	<path display="inline" d="M239.9,157.6h25.2v11.6h0.3c3.5-6.7,12.1-13.7,24.9-13.7c26.6,0,31.6,17.5,31.6,40.3v46.4h-26.3V201
		c0-9.8-0.2-22.4-13.7-22.4c-13.7,0-15.8,10.7-15.8,21.7v41.9h-26.3V157.6z"/>
</g>
<g>
	<path d="M418.1,93.9c-13.4-13.4-29.4-20-48.3-20H142.2c-18.8,0-34.9,6.7-48.3,20c-13.4,13.4-20,29.4-20,48.3v227.7
		c0,18.8,6.7,34.9,20,48.3c13.4,13.4,29.4,20,48.3,20h227.7c18.8,0,34.9-6.7,48.3-20c13.4-13.4,20-29.4,20-48.3V142.2
		C438.1,123.4,431.5,107.3,418.1,93.9z M377.4,263.6c0,6.6-3.1,11.3-9.3,14c-2.1,0.8-4,1.2-5.9,1.2c-4.3,0-7.8-1.5-10.7-4.5
		l-34.1-34.1L190.8,366.8c-3,3-6.6,4.5-10.7,4.5c-4.1,0-7.7-1.5-10.7-4.5l-24.2-24.2c-3-3-4.5-6.6-4.5-10.7c0-4.1,1.5-7.7,4.5-10.7
		l126.6-126.6l-34.2-34.1c-4.9-4.6-6-10.1-3.3-16.6c2.7-6.2,7.4-9.3,14-9.3h113.8c4.1,0,7.7,1.5,10.7,4.5c3,3,4.5,6.6,4.5,10.7
		L377.4,263.6L377.4,263.6z"/>
</g>
<g>
</g>
<g>
</g>
<g>
</g>
<g>
</g>
<g>
</g>
<g>
</g>
<g>
</g>
<g>
</g>
<g>
</g>
<g>
</g>
<g>
</g>
<g>
</g>
<g>
</g>
<g>
</g>
<g>
</g>
</svg>
